/* XPM */
static const char * const LabelCursorLeftXpm[] = {
"32 32 6 1",
" 	c #FF0000",
".	c #000000",
"+	c #646464",
"@	c #909090",
"#	c #FFFFFF",
"$	c #CDCDCD",
"                                ",
"                                ",
"                                ",
"                                ",
"                                ",
"                                ",
"                                ",
"                                ",
"                                ",
"           ..                   ",
"          .+@.                  ",
"          .@#@.                 ",
"          .+##@.                ",
"         ...@##@.               ",
"        .$#$.@##@.              ",
"       .$###$.@##.              ",
"       .#####.@##.              ",
"       .$###$.@##.              ",
"        .$#$.@##@.              ",
"         ...@##@.               ",
"          .+##@.                ",
"          .@#@.                 ",
"          .+@.                  ",
"           ..                   ",
"                                ",
"                                ",
"                                ",
"                                ",
"                                ",
"                                ",
"                                ",
"                                "};
